<svg xmlns="http://www.w3.org/2000/svg" width="159" height="27" viewBox="0 0 159 27">
    <path fill="#FFF" fill-rule="evenodd" d="M5.076 26.424V7.416h.072l7.092 19.008h7.164V.432h-5.076v18h-.072l-6.912-18H0v25.992h5.076zm30.612-3.456c3.06 0 3.456-2.88 3.456-9.54 0-6.66-.396-9.54-3.456-9.54s-3.456 2.88-3.456 9.54c0 6.66.396 9.54 3.456 9.54zm0 3.888c-8.964 0-8.964-6.624-8.964-13.428 0-6.876 0-13.428 8.964-13.428s8.964 6.552 8.964 13.428c0 6.804 0 13.428-8.964 13.428zm29.892-.432v-4.32h-8.136V.432h-5.436v25.992H65.58zM66.816.432v4.32h6.048v21.672H78.3V4.752h6.048V.432H66.816zm28.38 25.992v-11.34h7.704v-3.996h-7.704v-6.66h8.064V.432h-13.5v25.992h5.436zm27.264 0v-4.32h-8.136V.432h-5.436v25.992h13.572zm10.812 0V.432h-5.436v25.992h5.436zm12.144-13.608l-6.732 13.608h5.616l3.996-8.964 3.996 8.964h6.156l-6.588-13.14L158.34.432h-5.652l-3.636 8.532-3.708-8.532h-6.192l6.264 12.384z"/>
</svg>
